<mxfile host="app.diagrams.net" modified="2024-03-26T23:09:21.375Z" agent="Mozilla/5.0 (Windows NT 10.0; Win64; x64) AppleWebKit/537.36 (KHTML, like Gecko) Chrome/123.0.0.0 Safari/537.36" etag="2s-qCMpzRSK8e_tMSSu0" version="24.2.0" type="device">
  <diagram name="Página-1" id="UG_bH2qf6v0Dx_PHVb_C">
    <mxGraphModel dx="1434" dy="746" grid="1" gridSize="10" guides="1" tooltips="1" connect="1" arrows="1" fold="1" page="1" pageScale="1" pageWidth="850" pageHeight="1100" math="0" shadow="0">
      <root>
        <mxCell id="0" />
        <mxCell id="1" parent="0" />
        <mxCell id="l1zYt3PzALiGpJzn8w24-1" value="" style="whiteSpace=wrap;html=1;aspect=fixed;" parent="1" vertex="1">
          <mxGeometry x="120" y="80" width="680" height="680" as="geometry" />
        </mxCell>
        <mxCell id="n_K0kCBnab5ktGoW5azu-19" style="edgeStyle=orthogonalEdgeStyle;rounded=0;orthogonalLoop=1;jettySize=auto;html=1;exitX=0.5;exitY=0.5;exitDx=0;exitDy=0;exitPerimeter=0;entryX=0;entryY=0.5;entryDx=0;entryDy=0;endArrow=none;endFill=0;" edge="1" parent="1" source="l1zYt3PzALiGpJzn8w24-2" target="l1zYt3PzALiGpJzn8w24-5">
          <mxGeometry relative="1" as="geometry" />
        </mxCell>
        <mxCell id="l1zYt3PzALiGpJzn8w24-2" value="Cliente&lt;div&gt;Registrado&lt;/div&gt;" style="shape=umlActor;verticalLabelPosition=bottom;verticalAlign=top;html=1;outlineConnect=0;" parent="1" vertex="1">
          <mxGeometry x="50" y="300" width="30" height="60" as="geometry" />
        </mxCell>
        <mxCell id="l1zYt3PzALiGpJzn8w24-3" value="BD&lt;div&gt;&lt;br&gt;&lt;/div&gt;" style="shape=umlActor;verticalLabelPosition=bottom;verticalAlign=top;html=1;outlineConnect=0;" parent="1" vertex="1">
          <mxGeometry x="840" y="300" width="30" height="60" as="geometry" />
        </mxCell>
        <mxCell id="n_K0kCBnab5ktGoW5azu-24" style="edgeStyle=orthogonalEdgeStyle;rounded=0;orthogonalLoop=1;jettySize=auto;html=1;entryX=0.5;entryY=0;entryDx=0;entryDy=0;" edge="1" parent="1" source="l1zYt3PzALiGpJzn8w24-5" target="n_K0kCBnab5ktGoW5azu-17">
          <mxGeometry relative="1" as="geometry" />
        </mxCell>
        <mxCell id="n_K0kCBnab5ktGoW5azu-30" style="edgeStyle=orthogonalEdgeStyle;rounded=0;orthogonalLoop=1;jettySize=auto;html=1;exitX=1;exitY=0.5;exitDx=0;exitDy=0;entryX=0;entryY=0.5;entryDx=0;entryDy=0;" edge="1" parent="1" source="l1zYt3PzALiGpJzn8w24-5" target="n_K0kCBnab5ktGoW5azu-29">
          <mxGeometry relative="1" as="geometry" />
        </mxCell>
        <mxCell id="l1zYt3PzALiGpJzn8w24-5" value="&lt;div&gt;&lt;span style=&quot;background-color: initial;&quot;&gt;Iniciar sesion&lt;/span&gt;&lt;br&gt;&lt;/div&gt;" style="ellipse;whiteSpace=wrap;html=1;" parent="1" vertex="1">
          <mxGeometry x="200" y="290" width="120" height="80" as="geometry" />
        </mxCell>
        <mxCell id="n_K0kCBnab5ktGoW5azu-9" value="Lanzador del juego" style="text;html=1;align=center;verticalAlign=middle;resizable=0;points=[];autosize=1;strokeColor=none;fillColor=none;" vertex="1" parent="1">
          <mxGeometry x="395" y="50" width="130" height="30" as="geometry" />
        </mxCell>
        <mxCell id="n_K0kCBnab5ktGoW5azu-14" value="Abrir navegador" style="ellipse;whiteSpace=wrap;html=1;" vertex="1" parent="1">
          <mxGeometry x="425" y="600" width="120" height="80" as="geometry" />
        </mxCell>
        <mxCell id="n_K0kCBnab5ktGoW5azu-28" style="edgeStyle=orthogonalEdgeStyle;rounded=0;orthogonalLoop=1;jettySize=auto;html=1;exitX=0.5;exitY=1;exitDx=0;exitDy=0;entryX=0;entryY=0.5;entryDx=0;entryDy=0;" edge="1" parent="1" source="n_K0kCBnab5ktGoW5azu-17" target="n_K0kCBnab5ktGoW5azu-14">
          <mxGeometry relative="1" as="geometry" />
        </mxCell>
        <mxCell id="n_K0kCBnab5ktGoW5azu-17" value="&lt;div&gt;&lt;span style=&quot;background-color: initial;&quot;&gt;Recuperar&lt;/span&gt;&lt;br&gt;&lt;/div&gt;&lt;div&gt;Contraseña&lt;/div&gt;" style="ellipse;whiteSpace=wrap;html=1;" vertex="1" parent="1">
          <mxGeometry x="200" y="480" width="120" height="80" as="geometry" />
        </mxCell>
        <mxCell id="n_K0kCBnab5ktGoW5azu-25" value="extend" style="text;html=1;align=center;verticalAlign=middle;whiteSpace=wrap;rounded=0;rotation=-90;" vertex="1" parent="1">
          <mxGeometry x="220" y="400" width="60" height="30" as="geometry" />
        </mxCell>
        <mxCell id="n_K0kCBnab5ktGoW5azu-29" value="&lt;div&gt;&lt;span style=&quot;background-color: initial;&quot;&gt;Validar datos&lt;/span&gt;&lt;br&gt;&lt;/div&gt;" style="ellipse;whiteSpace=wrap;html=1;" vertex="1" parent="1">
          <mxGeometry x="425" y="290" width="120" height="80" as="geometry" />
        </mxCell>
        <mxCell id="n_K0kCBnab5ktGoW5azu-32" value="Include" style="text;html=1;align=center;verticalAlign=middle;whiteSpace=wrap;rounded=0;" vertex="1" parent="1">
          <mxGeometry x="335" y="300" width="60" height="30" as="geometry" />
        </mxCell>
        <mxCell id="n_K0kCBnab5ktGoW5azu-34" style="edgeStyle=orthogonalEdgeStyle;rounded=0;orthogonalLoop=1;jettySize=auto;html=1;exitX=1;exitY=0.5;exitDx=0;exitDy=0;entryX=0.5;entryY=0.5;entryDx=0;entryDy=0;entryPerimeter=0;endArrow=none;endFill=0;" edge="1" parent="1" source="n_K0kCBnab5ktGoW5azu-29" target="l1zYt3PzALiGpJzn8w24-3">
          <mxGeometry relative="1" as="geometry" />
        </mxCell>
        <mxCell id="n_K0kCBnab5ktGoW5azu-35" value="Include" style="text;html=1;align=center;verticalAlign=middle;whiteSpace=wrap;rounded=0;" vertex="1" parent="1">
          <mxGeometry x="630" y="300" width="60" height="30" as="geometry" />
        </mxCell>
        <mxCell id="n_K0kCBnab5ktGoW5azu-36" value="&lt;div&gt;&lt;span style=&quot;background-color: initial;&quot;&gt;Iniciar juego&lt;/span&gt;&lt;br&gt;&lt;/div&gt;" style="ellipse;whiteSpace=wrap;html=1;" vertex="1" parent="1">
          <mxGeometry x="425" y="100" width="120" height="80" as="geometry" />
        </mxCell>
        <mxCell id="n_K0kCBnab5ktGoW5azu-38" style="edgeStyle=orthogonalEdgeStyle;rounded=0;orthogonalLoop=1;jettySize=auto;html=1;exitX=1;exitY=0.5;exitDx=0;exitDy=0;entryX=0.5;entryY=0;entryDx=0;entryDy=0;entryPerimeter=0;endArrow=none;endFill=0;" edge="1" parent="1" source="n_K0kCBnab5ktGoW5azu-36" target="l1zYt3PzALiGpJzn8w24-3">
          <mxGeometry relative="1" as="geometry" />
        </mxCell>
        <mxCell id="n_K0kCBnab5ktGoW5azu-41" value="include" style="text;html=1;align=center;verticalAlign=middle;whiteSpace=wrap;rounded=0;" vertex="1" parent="1">
          <mxGeometry x="290" y="640" width="60" height="30" as="geometry" />
        </mxCell>
        <mxCell id="n_K0kCBnab5ktGoW5azu-42" value="Include" style="text;html=1;align=center;verticalAlign=middle;whiteSpace=wrap;rounded=0;" vertex="1" parent="1">
          <mxGeometry x="640" y="110" width="60" height="30" as="geometry" />
        </mxCell>
      </root>
    </mxGraphModel>
  </diagram>
</mxfile>
